<?xml version="1.0" encoding="UTF-8"?>
<svg width="200" height="180" viewBox="0 0 200 180" xmlns="http://www.w3.org/2000/svg">
  <line x1="100" y1="6" x2="100" y2="20" stroke="#5DCAA5" stroke-width="1" />
  <line x1="92" y1="6" x2="108" y2="6" stroke="#5DCAA5" stroke-width="1.5" />
  <circle cx="100" cy="6" r="2.5" fill="#5DCAA5" />
  <rect x="14" y="20" width="172" height="150" fill="#0F1620" stroke="#5DCAA5" stroke-width="2" />
  <rect x="14" y="20" width="172" height="150" fill="none" stroke="#5DCAA5" stroke-width="0.6" stroke-dasharray="3 4" transform="translate(4 4)" opacity="0.4" />
  <line x1="14" y1="20" x2="186" y2="20" stroke="#5DCAA5" stroke-width="0.6" opacity="0.5" />
  <line x1="14" y1="35" x2="186" y2="35" stroke="#5DCAA5" stroke-width="0.4" opacity="0.4" />
  <line x1="14" y1="60" x2="186" y2="60" stroke="#5DCAA5" stroke-width="0.5" opacity="0.4" />
  <line x1="14" y1="105" x2="186" y2="105" stroke="#5DCAA5" stroke-width="0.5" opacity="0.4" />
  <line x1="14" y1="155" x2="186" y2="155" stroke="#5DCAA5" stroke-width="0.6" opacity="0.5" />
  <line x1="14" y1="170" x2="186" y2="170" stroke="#5DCAA5" stroke-width="0.4" opacity="0.4" />
  <rect x="24" y="42" width="60" height="50" fill="none" stroke="#5DCAA5" stroke-width="1" />
  <line x1="24" y1="50" x2="84" y2="50" stroke="#5DCAA5" stroke-width="0.5" opacity="0.7" />
  <line x1="30" y1="58" x2="78" y2="58" stroke="#5DCAA5" stroke-width="0.4" opacity="0.5" />
  <line x1="30" y1="66" x2="74" y2="66" stroke="#5DCAA5" stroke-width="0.4" opacity="0.5" />
  <line x1="30" y1="74" x2="78" y2="74" stroke="#5DCAA5" stroke-width="0.4" opacity="0.5" />
  <line x1="30" y1="82" x2="68" y2="82" stroke="#5DCAA5" stroke-width="0.4" opacity="0.5" />
  <circle cx="54" cy="46" r="1" fill="#5DCAA5" />
  <rect x="100" y="42" width="76" height="35" fill="none" stroke="#5DCAA5" stroke-width="1" />
  <line x1="100" y1="50" x2="176" y2="50" stroke="#5DCAA5" stroke-width="0.5" opacity="0.7" />
  <line x1="106" y1="58" x2="170" y2="58" stroke="#5DCAA5" stroke-width="0.4" opacity="0.5" />
  <line x1="106" y1="66" x2="160" y2="66" stroke="#5DCAA5" stroke-width="0.4" opacity="0.5" />
  <circle cx="138" cy="46" r="1" fill="#5DCAA5" />
  <rect x="100" y="86" width="76" height="40" fill="none" stroke="#5DCAA5" stroke-width="1" />
  <line x1="100" y1="94" x2="176" y2="94" stroke="#5DCAA5" stroke-width="0.5" opacity="0.7" />
  <line x1="106" y1="102" x2="170" y2="102" stroke="#5DCAA5" stroke-width="0.4" opacity="0.5" />
  <line x1="106" y1="110" x2="160" y2="110" stroke="#5DCAA5" stroke-width="0.4" opacity="0.5" />
  <line x1="106" y1="118" x2="170" y2="118" stroke="#5DCAA5" stroke-width="0.4" opacity="0.5" />
  <circle cx="138" cy="90" r="1" fill="#5DCAA5" />
  <rect x="24" y="115" width="60" height="40" fill="none" stroke="#5DCAA5" stroke-width="1" />
  <line x1="24" y1="123" x2="84" y2="123" stroke="#5DCAA5" stroke-width="0.5" opacity="0.7" />
  <line x1="30" y1="131" x2="78" y2="131" stroke="#5DCAA5" stroke-width="0.4" opacity="0.5" />
  <line x1="30" y1="139" x2="74" y2="139" stroke="#5DCAA5" stroke-width="0.4" opacity="0.5" />
  <line x1="30" y1="147" x2="68" y2="147" stroke="#5DCAA5" stroke-width="0.4" opacity="0.5" />
  <circle cx="54" cy="119" r="1" fill="#5DCAA5" />
</svg>